<?xml version="1.0" encoding="UTF-8" standalone="no"?>
<!DOCTYPE svg PUBLIC "-//W3C//DTD SVG 1.1//EN" "http://www.w3.org/Graphics/SVG/1.1/DTD/svg11.dtd">
<svg width="100%" height="100%" viewBox="0 0 100 50" version="1.1" xmlns="http://www.w3.org/2000/svg" xmlns:xlink="http://www.w3.org/1999/xlink" xml:space="preserve" xmlns:serif="http://www.serif.com/" style="fill-rule:evenodd;clip-rule:evenodd;stroke-linejoin:round;stroke-miterlimit:2;">
    <rect x="0" y="0" width="100" height="50"/>
    <g transform="matrix(4.95758,0,0,4.95758,-75.845,-216.334)">
        <g>
            <g transform="matrix(0.956284,0,0,0.956284,-4.80214,4.14059)">
                <path d="M25.7,50.967C25.028,50.967 24.406,50.861 23.834,50.649C23.262,50.437 22.766,50.135 22.346,49.743C21.926,49.351 21.6,48.887 21.368,48.351C21.136,47.815 21.02,47.223 21.02,46.575C21.02,45.927 21.136,45.335 21.368,44.799C21.6,44.263 21.926,43.799 22.346,43.407C22.766,43.015 23.262,42.713 23.834,42.501C24.406,42.289 25.028,42.183 25.7,42.183C26.524,42.183 27.254,42.327 27.89,42.615C28.526,42.903 29.052,43.319 29.468,43.863L27.68,45.459C27.432,45.147 27.158,44.905 26.858,44.733C26.558,44.561 26.22,44.475 25.844,44.475C25.548,44.475 25.28,44.523 25.04,44.619C24.8,44.715 24.594,44.855 24.422,45.039C24.25,45.223 24.116,45.445 24.02,45.705C23.924,45.965 23.876,46.255 23.876,46.575C23.876,46.895 23.924,47.185 24.02,47.445C24.116,47.705 24.25,47.927 24.422,48.111C24.594,48.295 24.8,48.435 25.04,48.531C25.28,48.627 25.548,48.675 25.844,48.675C26.22,48.675 26.558,48.589 26.858,48.417C27.158,48.245 27.432,48.003 27.68,47.691L29.468,49.287C29.052,49.823 28.526,50.237 27.89,50.529C27.254,50.821 26.524,50.967 25.7,50.967Z" style="fill:white;fill-rule:nonzero;"/>
            </g>
            <g transform="matrix(1,0,0,1,-6.636,2.10452)">
                <path d="M35.732,42.375L38.564,42.375L38.564,50.775L35.732,50.775L35.732,42.375ZM33.116,50.775L30.284,50.775L30.284,42.375L33.116,42.375L33.116,50.775ZM35.924,47.679L32.924,47.679L32.924,45.351L35.924,45.351L35.924,47.679Z" style="fill:white;fill-rule:nonzero;"/>
            </g>
            <g transform="matrix(0.75,0,0,0.610603,3.21105,21.8762)">
                <rect x="39.848" y="44.211" width="2.712" height="6.564" style="fill:white;fill-rule:nonzero;"/>
            </g>
            <g transform="matrix(0.431911,0,0,0.431911,9.08358,21.7011)">
                <circle cx="57.952" cy="57.64" r="3.14" style="fill:white;"/>
            </g>
        </g>
    </g>
</svg>
